<svg id="svg" version="1.1" xmlns="http://www.w3.org/2000/svg" xmlns:xlink="http://www.w3.org/1999/xlink" width="400" height="400" viewBox="0, 0, 400,400"><g id="svgg"><path id="path0" d="M119.600 74.542 C 119.050 74.854,117.553 75.340,116.274 75.623 C 114.394 76.040,113.838 76.353,113.369 77.259 C 113.051 77.876,112.331 78.620,111.769 78.914 C 107.743 81.024,107.736 96.769,111.760 98.876 C 112.222 99.118,113.264 99.909,114.075 100.634 C 116.764 103.038,127.584 103.813,130.627 101.819 C 132.412 100.649,136.392 96.322,136.713 95.200 C 137.478 92.533,137.036 82.903,136.095 81.729 C 135.597 81.108,134.536 79.654,133.736 78.497 C 131.575 75.369,122.584 72.854,119.600 74.542 M112.900 125.796 L 111.600 126.361 111.600 207.791 L 111.600 289.220 112.644 289.617 C 113.262 289.852,117.711 289.970,123.544 289.907 L 133.400 289.800 133.501 208.042 C 133.575 147.942,133.483 126.141,133.152 125.742 C 132.488 124.943,114.755 124.990,112.900 125.796 M172.100 125.978 L 170.800 126.788 170.800 207.785 L 170.800 288.782 171.750 289.404 C 172.596 289.958,176.993 290.014,212.050 289.913 L 251.400 289.800 253.800 288.739 C 255.202 288.119,258.030 287.395,260.600 286.999 C 263.772 286.509,265.558 286.007,267.000 285.200 C 268.100 284.584,270.080 283.864,271.400 283.600 C 272.720 283.336,274.185 282.765,274.656 282.332 C 275.126 281.898,276.643 281.192,278.026 280.761 C 279.453 280.317,280.793 279.617,281.125 279.143 C 281.447 278.683,282.714 277.863,283.940 277.321 C 285.167 276.779,286.398 276.010,286.676 275.613 C 286.954 275.216,287.681 274.767,288.291 274.616 C 288.901 274.464,290.030 273.723,290.800 272.970 C 293.146 270.676,296.071 268.353,297.433 267.704 C 298.144 267.365,298.960 266.649,299.247 266.113 C 299.534 265.577,300.093 264.964,300.490 264.752 C 300.887 264.539,301.689 263.608,302.273 262.683 C 302.857 261.757,304.564 259.604,306.067 257.897 C 307.570 256.191,308.800 254.518,308.800 254.179 C 308.800 253.841,309.275 253.088,309.856 252.507 C 310.437 251.927,311.350 250.496,311.884 249.329 C 312.418 248.161,313.205 246.962,313.632 246.663 C 314.059 246.364,314.696 245.147,315.049 243.960 C 315.401 242.772,316.060 241.279,316.514 240.641 C 316.967 240.004,317.659 238.135,318.052 236.487 C 318.444 234.840,319.229 232.791,319.796 231.934 C 320.678 230.601,320.907 229.575,321.385 224.816 C 321.692 221.757,322.178 218.837,322.465 218.327 C 323.715 216.106,323.895 198.896,322.689 196.944 C 322.340 196.380,321.603 191.698,321.195 187.461 C 320.920 184.599,320.646 183.621,319.763 182.347 C 319.085 181.369,318.466 179.686,318.131 177.913 C 317.804 176.183,317.131 174.333,316.426 173.227 C 315.786 172.222,315.134 170.704,314.977 169.853 C 314.821 169.002,314.174 167.715,313.539 166.992 C 312.905 166.269,312.187 165.075,311.943 164.339 C 311.700 163.603,310.986 162.338,310.355 161.530 C 309.725 160.721,308.983 159.551,308.707 158.930 C 308.430 158.308,307.663 157.222,307.002 156.515 C 306.341 155.808,305.126 154.458,304.302 153.515 C 300.159 148.771,293.250 142.261,291.281 141.245 C 290.686 140.938,290.055 140.440,289.878 140.139 C 289.700 139.837,288.620 139.119,287.478 138.543 C 286.335 137.966,284.809 136.978,284.086 136.347 C 283.363 135.716,282.454 135.200,282.064 135.200 C 281.675 135.200,280.466 134.633,279.378 133.941 C 278.290 133.248,276.270 132.423,274.889 132.106 C 273.508 131.789,271.888 131.122,271.289 130.623 C 270.238 129.748,268.178 129.133,264.400 128.568 C 263.410 128.420,261.610 127.860,260.400 127.324 C 256.520 125.606,254.738 125.531,213.200 125.346 C 173.774 125.170,173.388 125.176,172.100 125.978 M237.400 144.212 C 238.280 144.529,239.573 144.791,240.274 144.794 C 240.975 144.797,242.055 144.994,242.674 145.232 C 243.293 145.470,246.392 145.914,249.560 146.218 C 254.558 146.699,255.526 146.910,256.889 147.811 C 257.812 148.422,259.690 149.085,261.450 149.422 C 264.640 150.032,265.569 150.398,266.366 151.360 C 266.642 151.691,267.802 152.235,268.945 152.567 C 270.175 152.924,271.497 153.666,272.186 154.385 C 272.826 155.053,273.585 155.600,273.874 155.600 C 274.162 155.600,275.073 156.206,275.899 156.947 C 276.724 157.688,277.778 158.411,278.241 158.555 C 279.308 158.887,288.800 168.536,288.800 169.289 C 288.800 169.598,289.320 170.349,289.957 170.958 C 290.593 171.568,291.215 172.577,291.340 173.201 C 291.465 173.824,292.103 174.945,292.759 175.692 C 293.414 176.438,294.164 177.895,294.424 178.930 C 294.684 179.964,295.404 181.574,296.022 182.508 C 296.833 183.733,297.310 185.209,297.733 187.803 C 298.055 189.781,298.695 192.349,299.156 193.508 C 301.145 198.508,301.160 216.228,299.180 219.433 C 298.725 220.169,298.150 222.336,297.812 224.586 C 297.358 227.609,296.964 228.869,296.035 230.272 C 295.378 231.264,294.639 233.050,294.391 234.242 C 294.144 235.433,293.530 236.901,293.028 237.504 C 292.525 238.107,291.749 239.432,291.302 240.448 C 290.856 241.465,290.288 242.422,290.041 242.575 C 289.793 242.728,288.965 243.831,288.200 245.026 C 287.436 246.222,286.632 247.200,286.415 247.200 C 286.198 247.200,285.744 247.736,285.405 248.390 C 284.596 249.954,280.169 254.281,275.545 258.026 C 274.744 258.674,273.124 259.633,271.945 260.156 C 270.765 260.679,269.453 261.492,269.030 261.963 C 268.606 262.433,267.256 263.105,266.030 263.455 C 264.803 263.804,263.440 264.403,263.000 264.786 C 261.762 265.861,261.489 265.962,258.031 266.618 C 256.249 266.956,254.183 267.591,253.441 268.029 C 250.311 269.875,196.512 270.548,194.250 268.768 L 193.192 267.936 193.296 207.197 L 193.400 146.459 194.236 145.339 C 194.696 144.723,195.506 144.098,196.036 143.949 C 198.138 143.361,235.701 143.599,237.400 144.212 " stroke="none" fill="#fafbf8" fill-rule="evenodd"></path><path id="path1" d="M158.105 1.087 C 158.714 1.179,159.614 1.177,160.105 1.082 C 160.597 0.987,160.100 0.911,159.000 0.914 C 157.900 0.917,157.497 0.995,158.105 1.087 M240.505 1.087 C 241.114 1.179,242.014 1.177,242.505 1.082 C 242.997 0.987,242.500 0.911,241.400 0.914 C 240.300 0.917,239.897 0.995,240.505 1.087 M251.638 3.400 C 251.580 4.306,252.278 4.590,254.000 4.360 L 255.800 4.120 253.933 4.060 C 252.865 4.026,251.980 3.786,251.865 3.500 C 251.754 3.225,251.652 3.180,251.638 3.400 M144.833 4.163 C 145.150 4.472,147.958 4.575,148.245 4.288 C 148.404 4.130,147.663 4.000,146.600 4.000 C 145.537 4.000,144.742 4.073,144.833 4.163 M93.013 26.379 C 92.883 26.589,93.164 26.684,93.643 26.592 C 94.838 26.362,95.111 26.000,94.090 26.000 C 93.627 26.000,93.142 26.171,93.013 26.379 M119.000 71.034 C 118.560 71.143,117.799 71.317,117.308 71.421 C 116.818 71.526,115.866 72.149,115.194 72.806 C 114.522 73.463,113.610 74.000,113.167 74.000 C 112.246 74.000,108.400 77.666,108.400 78.543 C 108.400 78.863,107.786 79.860,107.034 80.759 C 104.497 83.796,104.639 97.600,107.207 97.600 C 107.420 97.600,107.910 98.273,108.298 99.095 C 108.685 99.917,109.506 100.832,110.123 101.127 C 110.740 101.423,111.403 102.083,111.597 102.593 C 111.814 103.164,112.526 103.712,113.444 104.015 C 114.266 104.286,115.348 104.950,115.850 105.492 C 118.007 107.819,126.888 107.903,129.400 105.619 C 129.840 105.219,130.650 104.769,131.200 104.619 C 133.541 103.980,134.417 103.437,135.174 102.154 C 135.616 101.406,136.426 100.589,136.976 100.338 C 137.666 100.024,138.183 99.252,138.650 97.842 C 139.022 96.719,139.732 95.170,140.228 94.400 C 141.973 91.690,141.967 85.778,140.217 83.686 C 139.717 83.089,139.012 81.576,138.650 80.324 C 138.182 78.705,137.653 77.808,136.820 77.214 C 136.175 76.755,135.538 76.035,135.405 75.614 C 135.271 75.194,134.543 74.645,133.787 74.396 C 133.031 74.146,132.072 73.509,131.656 72.980 C 130.392 71.374,122.532 70.165,119.000 71.034 M130.800 73.917 C 140.477 79.268,142.685 92.023,135.344 100.175 C 133.687 102.015,132.472 102.970,131.200 103.433 C 130.210 103.793,128.557 104.428,127.526 104.844 C 123.353 106.527,115.427 105.024,112.800 102.052 C 112.250 101.429,111.303 100.601,110.695 100.211 C 110.010 99.771,108.967 98.226,107.952 96.148 L 106.314 92.795 106.464 88.298 C 106.601 84.181,106.707 83.665,107.707 82.207 C 108.308 81.331,108.800 80.373,108.800 80.077 C 108.800 79.155,113.200 74.864,114.420 74.596 C 115.048 74.458,116.003 73.998,116.542 73.574 C 119.484 71.260,126.291 71.424,130.800 73.917 M26.273 92.953 C 26.123 93.345,26.011 93.966,26.025 94.333 C 26.042 94.775,26.181 94.674,26.437 94.034 C 26.649 93.503,26.761 92.882,26.685 92.654 C 26.609 92.427,26.424 92.561,26.273 92.953 M110.967 121.630 C 108.434 122.366,108.610 116.266,108.496 207.113 C 108.382 298.674,108.181 291.636,110.943 292.946 C 112.111 293.500,113.938 293.600,122.915 293.600 L 133.509 293.600 135.555 291.680 L 137.600 289.759 137.600 208.034 L 137.600 126.308 136.519 124.323 C 134.825 121.209,134.760 121.195,122.720 121.236 C 116.934 121.256,111.645 121.433,110.967 121.630 M170.800 121.491 C 167.386 122.112,167.575 116.792,167.694 208.858 C 167.813 301.001,167.483 291.699,170.687 293.055 C 172.866 293.977,242.265 293.850,243.591 292.921 C 244.350 292.389,246.222 292.141,252.267 291.771 C 259.769 291.312,260.026 291.267,261.887 290.097 C 263.323 289.195,264.487 288.829,266.558 288.630 C 269.477 288.350,270.339 288.031,272.083 286.580 C 272.719 286.052,274.014 285.563,275.218 285.398 C 276.578 285.211,277.695 284.751,278.534 284.033 C 279.230 283.438,280.610 282.723,281.600 282.444 C 282.689 282.137,283.906 281.396,284.680 280.568 C 285.383 279.816,286.311 279.200,286.742 279.200 C 287.172 279.200,288.294 278.557,289.234 277.771 C 290.175 276.986,291.641 275.987,292.492 275.553 C 293.343 275.119,294.142 274.494,294.269 274.165 C 294.395 273.835,295.196 273.210,296.049 272.775 C 296.902 272.340,297.600 271.720,297.600 271.397 C 297.600 271.074,298.312 270.360,299.183 269.811 C 300.053 269.261,300.964 268.440,301.207 267.987 C 301.450 267.533,302.083 266.997,302.613 266.795 C 303.158 266.588,303.841 265.798,304.183 264.978 C 304.521 264.170,305.154 263.433,305.613 263.313 C 306.066 263.194,306.796 262.392,307.236 261.529 C 307.676 260.667,308.310 259.856,308.645 259.728 C 308.979 259.599,309.784 258.553,310.433 257.403 C 311.082 256.253,311.971 254.988,312.408 254.593 C 312.846 254.197,313.392 253.174,313.622 252.319 C 313.897 251.295,314.378 250.611,315.029 250.314 C 315.753 249.984,316.190 249.267,316.662 247.632 C 317.016 246.404,317.804 244.830,318.411 244.134 C 319.158 243.278,319.607 242.204,319.798 240.818 C 319.970 239.564,320.449 238.328,321.029 237.639 C 322.297 236.131,322.704 234.959,323.004 231.937 C 323.158 230.397,323.756 228.300,324.528 226.600 L 325.800 223.800 325.800 207.400 L 325.800 191.000 324.688 188.625 C 324.076 187.319,323.401 184.979,323.186 183.425 C 322.593 179.120,322.406 178.469,321.424 177.290 C 320.925 176.691,320.286 175.210,320.005 174.000 C 319.427 171.510,319.007 170.548,317.995 169.400 C 317.608 168.960,317.006 167.602,316.658 166.381 C 316.307 165.151,315.572 163.737,315.008 163.208 C 314.449 162.682,313.804 161.557,313.575 160.708 C 313.300 159.684,312.821 159.010,312.153 158.706 C 311.600 158.454,310.914 157.690,310.630 157.009 C 309.915 155.300,306.219 150.312,305.204 149.687 C 304.746 149.406,304.204 148.737,304.001 148.202 C 303.797 147.667,302.918 146.780,302.047 146.230 C 301.176 145.680,300.347 144.863,300.205 144.415 C 300.062 143.967,299.754 143.600,299.520 143.600 C 299.286 143.600,298.533 143.009,297.847 142.288 C 297.161 141.566,295.880 140.548,295.000 140.025 C 294.120 139.502,292.860 138.582,292.200 137.981 C 291.540 137.380,290.550 136.756,290.000 136.595 C 289.450 136.433,288.457 135.716,287.793 135.001 C 286.962 134.107,286.058 133.612,284.894 133.416 C 283.863 133.242,282.926 132.778,282.494 132.229 C 281.557 131.037,280.576 130.553,278.400 130.206 C 277.239 130.021,276.171 129.511,275.393 128.771 C 274.415 127.841,273.590 127.534,271.060 127.158 C 268.865 126.831,267.608 126.419,266.840 125.772 C 265.464 124.615,264.864 124.481,259.092 124.040 C 255.728 123.784,254.073 123.478,253.298 122.970 C 250.804 121.336,247.618 121.214,208.800 121.262 C 188.450 121.288,171.350 121.391,170.800 121.491 M133.880 123.700 C 134.331 124.195,134.903 124.993,135.150 125.474 C 135.746 126.631,135.797 288.229,135.203 289.793 C 134.414 291.866,132.901 292.105,121.810 291.908 C 110.990 291.715,110.660 291.662,109.785 289.971 C 108.901 288.262,108.901 127.490,109.785 125.374 C 110.774 123.008,111.677 122.833,123.030 122.816 C 132.932 122.800,133.071 122.812,133.880 123.700 M247.074 123.236 C 248.171 123.660,253.759 124.462,259.400 125.004 C 261.105 125.168,263.243 125.728,264.867 126.437 C 266.334 127.076,267.780 127.600,268.080 127.600 C 269.446 127.600,272.921 128.772,274.290 129.695 C 275.121 130.255,276.756 130.933,277.923 131.202 C 279.091 131.471,280.563 132.125,281.193 132.656 C 281.824 133.187,282.939 133.818,283.670 134.060 C 284.402 134.301,285.630 134.989,286.400 135.588 C 287.170 136.186,288.430 137.002,289.200 137.399 C 289.970 137.797,291.050 138.561,291.600 139.097 C 292.150 139.634,293.524 140.731,294.652 141.536 C 297.401 143.497,302.931 148.840,305.400 151.920 C 306.500 153.292,307.895 154.992,308.500 155.697 C 309.105 156.402,309.600 157.118,309.600 157.288 C 309.600 157.458,310.216 158.279,310.969 159.113 C 311.722 159.946,312.653 161.432,313.038 162.414 C 313.423 163.396,314.219 164.760,314.807 165.444 C 315.395 166.128,316.097 167.568,316.367 168.644 C 316.636 169.720,317.217 170.985,317.657 171.456 C 318.097 171.927,318.777 173.547,319.167 175.056 C 319.558 176.565,320.351 178.701,320.929 179.801 C 321.571 181.024,322.153 183.045,322.425 184.995 C 322.669 186.751,323.133 188.911,323.457 189.794 C 323.781 190.677,324.241 191.940,324.481 192.600 C 324.741 193.315,324.989 198.572,325.097 205.613 L 325.277 217.427 324.058 222.213 C 323.388 224.846,322.571 228.479,322.244 230.287 C 321.916 232.100,321.203 234.342,320.655 235.287 C 320.108 236.229,319.397 238.024,319.075 239.276 C 318.752 240.528,318.117 242.074,317.663 242.712 C 317.208 243.350,316.462 244.874,316.003 246.100 C 315.545 247.325,314.893 248.556,314.556 248.837 C 314.218 249.117,313.575 250.079,313.127 250.973 C 312.679 251.868,311.912 253.050,311.422 253.600 C 310.933 254.150,310.139 255.291,309.658 256.136 C 308.674 257.867,306.913 260.126,304.717 262.474 C 303.902 263.347,303.125 264.407,302.990 264.830 C 302.856 265.254,302.598 265.600,302.418 265.600 C 302.237 265.600,301.283 266.365,300.297 267.300 C 296.336 271.056,291.904 274.628,290.001 275.599 C 289.201 276.008,288.300 276.639,287.998 277.002 C 287.697 277.365,286.597 278.095,285.553 278.624 C 284.510 279.152,283.547 279.762,283.413 279.980 C 283.046 280.573,275.256 284.261,273.236 284.797 C 272.266 285.054,270.556 285.772,269.436 286.392 C 268.307 287.017,266.153 287.727,264.600 287.986 C 263.060 288.243,260.720 288.898,259.400 289.441 C 257.698 290.140,255.662 290.543,252.400 290.826 C 249.870 291.045,246.090 291.401,244.000 291.616 C 239.537 292.076,175.660 292.092,172.435 291.634 C 168.374 291.058,168.800 300.906,168.800 207.586 L 168.800 125.661 169.814 124.457 C 170.371 123.794,171.226 123.175,171.714 123.081 C 173.857 122.666,245.984 122.814,247.074 123.236 M395.701 142.600 C 395.705 143.480,395.787 143.793,395.883 143.295 C 395.979 142.798,395.975 142.078,395.875 141.695 C 395.775 141.313,395.696 141.720,395.701 142.600 M4.000 146.600 C 4.000 147.663,4.130 148.404,4.288 148.245 C 4.575 147.958,4.472 145.150,4.163 144.833 C 4.073 144.742,4.000 145.537,4.000 146.600 M196.710 147.024 C 196.111 147.349,195.436 147.960,195.210 148.381 C 194.714 149.308,194.639 266.328,195.134 267.107 C 196.137 268.687,238.189 269.124,245.400 267.630 C 257.310 265.162,258.875 264.762,260.310 263.812 C 261.137 263.265,262.440 262.697,263.207 262.551 C 264.818 262.243,267.421 261.013,267.817 260.373 C 267.966 260.131,268.856 259.605,269.794 259.203 C 273.246 257.723,284.000 248.948,284.000 247.611 C 284.000 247.397,285.159 245.732,286.576 243.911 C 289.257 240.466,292.844 233.822,293.588 230.923 C 293.825 230.001,294.554 228.228,295.209 226.983 C 295.864 225.737,296.400 224.340,296.400 223.877 C 296.400 222.395,297.612 215.069,298.199 213.000 C 299.345 208.965,299.364 206.143,298.282 200.792 C 297.727 198.046,297.058 194.180,296.796 192.200 C 296.479 189.806,295.874 187.595,294.990 185.600 C 294.259 183.950,293.537 181.923,293.385 181.097 C 293.234 180.270,292.794 179.190,292.408 178.697 C 292.022 178.203,291.157 176.709,290.486 175.376 C 289.815 174.043,288.967 172.705,288.603 172.403 C 288.239 172.101,287.605 171.211,287.194 170.427 C 285.803 167.771,274.978 157.783,272.264 156.651 C 271.420 156.299,270.209 155.574,269.574 155.040 C 268.940 154.506,267.741 153.852,266.910 153.587 C 266.080 153.322,264.500 152.604,263.400 151.993 C 262.300 151.381,259.986 150.592,258.258 150.240 C 256.530 149.888,254.280 149.227,253.258 148.770 C 251.942 148.181,249.943 147.828,246.400 147.557 C 243.650 147.347,239.951 147.001,238.179 146.788 C 232.622 146.119,198.015 146.315,196.710 147.024 M239.714 147.981 C 247.927 148.311,248.540 148.390,250.381 149.352 C 251.647 150.014,253.779 150.589,256.446 150.988 C 259.730 151.479,260.765 151.798,261.580 152.569 C 262.141 153.101,263.666 153.811,264.969 154.148 C 266.453 154.531,267.649 155.125,268.169 155.738 C 268.626 156.275,269.900 157.029,271.000 157.412 C 272.100 157.795,273.404 158.543,273.898 159.075 C 274.392 159.606,275.312 160.220,275.943 160.440 C 276.574 160.660,277.287 161.272,277.528 161.801 C 277.768 162.329,278.478 163.027,279.105 163.351 C 279.731 163.675,280.451 164.395,280.705 164.951 C 280.958 165.507,281.692 166.234,282.336 166.567 C 282.984 166.902,283.621 167.631,283.764 168.200 C 283.906 168.765,284.462 169.428,284.999 169.673 C 285.557 169.926,286.170 170.702,286.426 171.478 C 286.672 172.225,287.578 173.650,288.437 174.643 C 289.297 175.636,290.000 176.784,290.000 177.194 C 290.000 177.603,290.445 178.467,290.989 179.114 C 292.220 180.577,292.622 181.624,292.993 184.334 C 293.199 185.841,293.624 186.855,294.439 187.784 C 295.551 189.050,295.610 189.324,295.998 195.050 C 296.219 198.322,296.597 202.217,296.837 203.705 C 297.150 205.643,297.152 207.343,296.845 209.705 C 296.609 211.517,296.226 215.412,295.993 218.360 C 295.618 223.116,295.461 223.850,294.596 224.878 C 293.652 226.000,293.139 227.451,292.633 230.429 C 292.500 231.215,291.948 232.457,291.407 233.191 C 290.866 233.924,290.131 235.441,289.775 236.562 C 289.418 237.683,288.684 239.004,288.143 239.498 C 287.602 239.992,286.975 240.925,286.750 241.572 C 286.525 242.218,285.905 243.032,285.373 243.381 C 284.841 243.729,283.953 244.909,283.398 246.003 C 282.347 248.078,279.848 250.638,277.079 252.477 C 276.187 253.069,275.300 253.835,275.108 254.179 C 274.915 254.524,274.053 255.165,273.192 255.604 C 272.331 256.043,271.447 256.739,271.226 257.151 C 271.000 257.573,270.011 258.104,268.954 258.370 C 267.816 258.656,266.645 259.310,265.965 260.038 C 264.981 261.091,262.241 261.979,259.914 261.998 C 259.756 261.999,259.089 262.526,258.432 263.169 C 257.488 264.091,256.747 264.390,254.918 264.585 C 248.278 265.292,245.666 265.771,244.200 266.550 C 242.000 267.719,198.579 268.122,197.441 266.984 C 196.859 266.402,196.800 260.985,196.800 207.848 C 196.800 146.887,196.758 148.464,198.400 147.878 C 199.384 147.526,230.308 147.603,239.714 147.981 M398.731 154.400 C 398.648 155.280,398.719 156.000,398.889 156.000 C 399.060 156.000,399.200 155.280,399.200 154.400 C 399.200 153.520,399.129 152.800,399.042 152.800 C 398.955 152.800,398.815 153.520,398.731 154.400 M0.914 159.000 C 0.917 160.100,0.995 160.503,1.087 159.895 C 1.179 159.286,1.177 158.386,1.082 157.895 C 0.987 157.403,0.911 157.900,0.914 159.000 M0.914 241.400 C 0.917 242.500,0.995 242.903,1.087 242.295 C 1.179 241.686,1.177 240.786,1.082 240.295 C 0.987 239.803,0.911 240.300,0.914 241.400 M398.706 244.300 C 398.628 244.465,398.682 245.320,398.825 246.200 L 399.086 247.800 399.143 245.900 C 399.196 244.133,399.045 243.581,398.706 244.300 M3.472 251.913 C 3.732 252.078,4.016 253.020,4.103 254.007 L 4.260 255.800 4.330 253.700 C 4.389 251.938,4.287 251.601,3.700 251.606 C 3.234 251.610,3.158 251.713,3.472 251.913 M395.515 257.600 C 395.612 258.260,395.760 258.800,395.845 258.800 C 395.930 258.800,396.000 258.260,396.000 257.600 C 396.000 256.940,395.851 256.400,395.669 256.400 C 395.487 256.400,395.418 256.940,395.515 257.600 M392.493 267.200 C 392.493 267.970,392.575 268.285,392.676 267.900 C 392.776 267.515,392.776 266.885,392.676 266.500 C 392.575 266.115,392.493 266.430,392.493 267.200 M388.694 278.903 L 387.988 280.200 388.794 279.256 C 389.480 278.452,389.846 277.594,389.500 277.603 C 389.445 277.604,389.082 278.189,388.694 278.903 M266.500 392.676 C 266.885 392.776,267.515 392.776,267.900 392.676 C 268.285 392.575,267.970 392.493,267.200 392.493 C 266.430 392.493,266.115 392.575,266.500 392.676 M256.400 395.669 C 256.400 395.851,256.940 396.000,257.600 396.000 C 258.260 396.000,258.800 395.930,258.800 395.845 C 258.800 395.760,258.260 395.612,257.600 395.515 C 256.940 395.418,256.400 395.487,256.400 395.669 M141.905 395.883 C 142.402 395.979,143.122 395.975,143.505 395.875 C 143.887 395.775,143.480 395.696,142.600 395.701 C 141.720 395.705,141.407 395.787,141.905 395.883 M154.200 398.800 L 152.600 399.086 154.300 399.143 C 155.235 399.174,156.000 399.020,156.000 398.800 C 156.000 398.580,155.955 398.426,155.900 398.457 C 155.845 398.488,155.080 398.642,154.200 398.800 M244.146 398.887 C 244.040 399.059,244.773 399.200,245.776 399.200 C 246.779 399.200,247.600 399.129,247.600 399.042 C 247.600 398.728,244.335 398.581,244.146 398.887 " stroke="none" fill="#bcdc6c" fill-rule="evenodd"></path><path id="path2" d="M118.461 72.405 C 117.945 72.624,117.081 73.150,116.542 73.574 C 116.003 73.998,115.048 74.458,114.420 74.596 C 113.200 74.864,108.800 79.155,108.800 80.077 C 108.800 80.373,108.308 81.331,107.707 82.207 C 106.707 83.665,106.601 84.181,106.464 88.298 L 106.314 92.795 107.952 96.148 C 108.967 98.226,110.010 99.771,110.695 100.211 C 111.303 100.601,112.250 101.429,112.800 102.052 C 115.427 105.024,123.353 106.527,127.526 104.844 C 128.557 104.428,130.210 103.793,131.200 103.433 C 132.472 102.970,133.687 102.015,135.344 100.175 C 144.958 89.498,137.864 72.558,123.600 72.133 C 121.290 72.064,118.978 72.186,118.461 72.405 M129.672 74.301 C 132.424 75.489,133.385 76.132,134.305 77.400 C 134.944 78.280,135.768 79.248,136.136 79.551 C 137.069 80.319,138.801 86.232,138.794 88.621 C 138.771 96.024,134.712 101.878,128.385 103.631 C 122.461 105.273,115.589 104.141,112.667 101.044 C 111.918 100.250,111.100 99.600,110.849 99.600 C 110.599 99.600,109.675 98.045,108.797 96.144 C 106.748 91.709,106.478 86.277,108.150 83.133 C 108.672 82.150,109.238 80.909,109.408 80.373 C 109.913 78.778,113.652 75.327,115.419 74.826 C 116.289 74.579,117.630 74.030,118.400 73.606 C 120.934 72.208,125.474 72.489,129.672 74.301 M111.685 123.403 C 109.019 124.561,109.200 118.425,109.200 207.807 C 109.200 294.708,109.106 290.549,111.085 291.416 C 111.478 291.589,116.305 291.810,121.810 291.908 C 132.901 292.105,134.414 291.866,135.203 289.793 C 135.797 288.229,135.746 126.631,135.150 125.474 C 133.733 122.723,134.078 122.798,123.030 122.816 C 115.246 122.828,112.706 122.959,111.685 123.403 M171.714 123.081 C 171.226 123.175,170.371 123.794,169.814 124.457 L 168.800 125.661 168.800 207.586 C 168.800 300.906,168.374 291.058,172.435 291.634 C 175.660 292.092,239.537 292.076,244.000 291.616 C 246.090 291.401,249.870 291.045,252.400 290.826 C 255.662 290.543,257.698 290.140,259.400 289.441 C 260.720 288.898,263.060 288.243,264.600 287.986 C 266.153 287.727,268.307 287.017,269.436 286.392 C 270.556 285.772,272.266 285.054,273.236 284.797 C 275.256 284.261,283.046 280.573,283.413 279.980 C 283.547 279.762,284.510 279.152,285.553 278.624 C 286.597 278.095,287.697 277.365,287.998 277.002 C 288.300 276.639,289.201 276.008,290.001 275.599 C 291.904 274.628,296.336 271.056,300.297 267.300 C 301.283 266.365,302.237 265.600,302.418 265.600 C 302.598 265.600,302.856 265.254,302.990 264.830 C 303.125 264.407,303.902 263.347,304.717 262.474 C 306.913 260.126,308.674 257.867,309.658 256.136 C 310.139 255.291,310.933 254.150,311.422 253.600 C 311.912 253.050,312.679 251.868,313.127 250.973 C 313.575 250.079,314.218 249.117,314.556 248.837 C 314.893 248.556,315.545 247.325,316.003 246.100 C 316.462 244.874,317.208 243.350,317.663 242.712 C 318.117 242.074,318.752 240.528,319.075 239.276 C 319.397 238.024,320.108 236.229,320.655 235.287 C 321.203 234.342,321.916 232.100,322.244 230.287 C 322.571 228.479,323.388 224.846,324.058 222.213 L 325.277 217.427 325.097 205.613 C 324.989 198.572,324.741 193.315,324.481 192.600 C 324.241 191.940,323.781 190.677,323.457 189.794 C 323.133 188.911,322.669 186.751,322.425 184.995 C 322.153 183.045,321.571 181.024,320.929 179.801 C 320.351 178.701,319.558 176.565,319.167 175.056 C 318.777 173.547,318.097 171.927,317.657 171.456 C 317.217 170.985,316.636 169.720,316.367 168.644 C 316.097 167.568,315.395 166.128,314.807 165.444 C 314.219 164.760,313.423 163.396,313.038 162.414 C 312.653 161.432,311.722 159.946,310.969 159.113 C 310.216 158.279,309.600 157.458,309.600 157.288 C 309.600 157.118,309.105 156.402,308.500 155.697 C 307.895 154.992,306.500 153.292,305.400 151.920 C 302.931 148.840,297.401 143.497,294.652 141.536 C 293.524 140.731,292.150 139.634,291.600 139.097 C 291.050 138.561,289.970 137.797,289.200 137.399 C 288.430 137.002,287.170 136.186,286.400 135.588 C 285.630 134.989,284.402 134.301,283.670 134.060 C 282.939 133.818,281.824 133.187,281.193 132.656 C 280.563 132.125,279.091 131.471,277.923 131.202 C 276.756 130.933,275.121 130.255,274.290 129.695 C 272.921 128.772,269.446 127.600,268.080 127.600 C 267.780 127.600,266.334 127.076,264.867 126.437 C 263.243 125.728,261.105 125.168,259.400 125.004 C 253.759 124.462,248.171 123.660,247.074 123.236 C 245.984 122.814,173.857 122.666,171.714 123.081 M133.971 125.054 L 134.800 126.108 134.800 207.728 L 134.800 289.348 133.930 290.274 C 132.200 292.116,111.432 291.528,110.405 289.609 C 109.633 288.166,109.867 126.768,110.643 125.660 C 111.691 124.164,112.541 124.052,123.071 124.025 L 133.142 124.000 133.971 125.054 M253.891 124.915 C 257.241 125.290,260.751 125.882,261.691 126.230 C 265.326 127.574,268.109 128.400,269.002 128.400 C 269.515 128.400,271.074 129.004,272.467 129.743 C 273.860 130.482,276.080 131.398,277.400 131.779 C 278.720 132.160,280.085 132.727,280.434 133.038 C 280.783 133.350,282.162 134.135,283.498 134.782 C 284.834 135.429,286.046 136.150,286.191 136.385 C 286.336 136.620,287.207 137.193,288.127 137.659 C 289.047 138.125,290.430 139.028,291.200 139.667 C 291.970 140.305,293.950 141.943,295.600 143.306 C 300.032 146.968,304.485 151.583,307.504 155.645 C 308.222 156.610,309.434 158.210,310.198 159.200 C 310.962 160.190,312.037 161.960,312.587 163.134 C 313.136 164.308,314.039 165.806,314.593 166.465 C 315.147 167.123,315.600 167.993,315.600 168.397 C 315.600 168.802,316.234 170.329,317.009 171.790 C 317.784 173.251,318.618 175.379,318.863 176.520 C 319.108 177.661,319.817 179.586,320.438 180.797 C 321.159 182.202,321.721 184.148,321.990 186.171 C 322.222 187.915,322.783 190.525,323.238 191.971 C 324.762 196.823,325.133 215.556,323.781 219.400 C 323.472 220.280,322.786 223.520,322.257 226.600 C 321.677 229.978,320.972 232.756,320.482 233.600 C 320.035 234.370,319.287 236.256,318.820 237.790 C 318.353 239.325,317.551 241.305,317.039 242.190 C 316.527 243.076,315.894 244.463,315.632 245.273 C 315.370 246.083,314.663 247.365,314.061 248.123 C 313.459 248.881,312.631 250.243,312.222 251.150 C 311.813 252.058,311.333 252.800,311.156 252.800 C 310.979 252.800,310.343 253.655,309.743 254.700 C 309.143 255.745,308.100 257.253,307.426 258.052 C 306.752 258.851,305.480 260.442,304.600 261.588 C 302.559 264.247,298.664 268.145,295.994 270.200 C 294.851 271.080,293.029 272.565,291.945 273.500 C 290.860 274.435,289.736 275.200,289.445 275.200 C 289.155 275.200,288.427 275.654,287.829 276.208 C 287.231 276.763,285.867 277.659,284.799 278.201 C 283.731 278.742,282.740 279.373,282.598 279.604 C 282.246 280.173,275.076 283.528,272.600 284.281 C 271.500 284.616,269.610 285.379,268.400 285.977 C 267.190 286.575,264.940 287.283,263.400 287.552 C 261.860 287.820,259.334 288.472,257.787 289.001 C 252.198 290.912,250.066 291.000,209.583 291.000 C 174.053 291.000,171.700 290.957,170.683 290.291 L 169.600 289.582 169.600 208.023 C 169.600 120.926,169.506 125.380,171.360 124.567 C 173.390 123.676,245.560 123.980,253.891 124.915 M196.485 145.803 C 193.845 146.950,194.000 143.083,194.000 207.943 C 194.000 265.205,194.020 266.736,194.764 267.656 L 195.529 268.600 218.664 268.723 C 242.195 268.848,247.360 268.627,250.949 267.336 C 251.857 267.010,253.950 266.485,255.600 266.169 C 257.250 265.853,259.613 265.068,260.852 264.426 C 262.090 263.783,263.818 263.065,264.691 262.829 C 265.565 262.594,266.891 261.956,267.640 261.412 C 268.388 260.867,269.900 259.971,271.000 259.420 C 275.217 257.309,282.143 251.410,284.644 247.800 C 287.388 243.840,288.875 241.786,289.568 241.000 C 290.588 239.843,293.189 234.534,293.878 232.200 C 294.203 231.100,294.908 229.440,295.444 228.511 C 296.016 227.522,296.743 225.120,297.200 222.711 C 297.630 220.450,298.343 216.890,298.786 214.800 C 299.863 209.720,299.859 203.467,298.774 198.400 C 298.327 196.310,297.630 192.788,297.224 190.572 C 296.819 188.357,296.033 185.650,295.479 184.555 C 294.924 183.461,294.173 181.542,293.809 180.290 C 293.445 179.039,292.975 177.908,292.764 177.778 C 292.553 177.647,291.759 176.307,291.000 174.800 C 290.241 173.293,289.428 171.941,289.194 171.796 C 288.959 171.651,288.351 170.873,287.841 170.066 C 286.515 167.968,278.907 160.298,276.934 159.070 C 276.017 158.499,275.149 157.842,275.005 157.609 C 274.861 157.376,273.890 156.752,272.847 156.224 C 271.803 155.695,270.720 154.985,270.438 154.646 C 270.157 154.307,268.980 153.676,267.822 153.242 C 266.664 152.809,265.063 152.011,264.264 151.469 C 263.431 150.904,261.673 150.286,260.138 150.019 C 258.667 149.762,256.437 149.120,255.181 148.592 C 252.501 147.464,249.450 146.942,243.400 146.576 C 240.980 146.430,237.920 146.063,236.600 145.761 C 233.037 144.946,198.374 144.982,196.485 145.803 M238.179 146.788 C 239.951 147.001,243.650 147.347,246.400 147.557 C 249.943 147.828,251.942 148.181,253.258 148.770 C 254.280 149.227,256.530 149.888,258.258 150.240 C 259.986 150.592,262.300 151.381,263.400 151.993 C 264.500 152.604,266.080 153.322,266.910 153.587 C 267.741 153.852,268.940 154.506,269.574 155.040 C 270.209 155.574,271.420 156.299,272.264 156.651 C 274.978 157.783,285.803 167.771,287.194 170.427 C 287.605 171.211,288.239 172.101,288.603 172.403 C 288.967 172.705,289.815 174.043,290.486 175.376 C 291.157 176.709,292.022 178.203,292.408 178.697 C 292.794 179.190,293.234 180.270,293.385 181.097 C 293.537 181.923,294.259 183.950,294.990 185.600 C 295.874 187.595,296.479 189.806,296.796 192.200 C 297.058 194.180,297.727 198.046,298.282 200.792 C 299.364 206.143,299.345 208.965,298.199 213.000 C 297.612 215.069,296.400 222.395,296.400 223.877 C 296.400 224.340,295.864 225.737,295.209 226.983 C 294.554 228.228,293.825 230.001,293.588 230.923 C 292.844 233.822,289.257 240.466,286.576 243.911 C 285.159 245.732,284.000 247.397,284.000 247.611 C 284.000 248.948,273.246 257.723,269.794 259.203 C 268.856 259.605,267.966 260.131,267.817 260.373 C 267.421 261.013,264.818 262.243,263.207 262.551 C 262.440 262.697,261.137 263.265,260.310 263.812 C 258.875 264.762,257.310 265.162,245.400 267.630 C 238.189 269.124,196.137 268.687,195.134 267.107 C 194.639 266.328,194.714 149.308,195.210 148.381 C 196.235 146.466,196.588 146.433,216.379 146.416 C 226.598 146.407,236.408 146.575,238.179 146.788 " stroke="none" fill="#d0e295" fill-rule="evenodd"></path><path id="path3" d="M118.400 73.606 C 117.630 74.030,116.289 74.579,115.419 74.826 C 113.652 75.327,109.913 78.778,109.408 80.373 C 109.238 80.909,108.672 82.150,108.150 83.133 C 106.478 86.277,106.748 91.709,108.797 96.144 C 109.675 98.045,110.599 99.600,110.849 99.600 C 111.100 99.600,111.918 100.250,112.667 101.044 C 115.589 104.141,122.461 105.273,128.385 103.631 C 134.712 101.878,138.771 96.024,138.794 88.621 C 138.801 86.232,137.069 80.319,136.136 79.551 C 135.768 79.248,134.944 78.280,134.305 77.400 C 131.612 73.690,122.283 71.464,118.400 73.606 M129.041 75.381 C 132.100 76.337,132.365 76.513,133.736 78.497 C 134.536 79.654,135.597 81.108,136.095 81.729 C 137.036 82.903,137.478 92.533,136.713 95.200 C 136.392 96.322,132.412 100.649,130.627 101.819 C 127.584 103.813,116.764 103.038,114.075 100.634 C 113.264 99.909,112.222 99.118,111.760 98.876 C 107.736 96.769,107.743 81.024,111.769 78.914 C 112.331 78.620,113.051 77.876,113.369 77.259 C 113.838 76.353,114.394 76.040,116.274 75.623 C 117.553 75.340,119.050 74.854,119.600 74.542 C 120.987 73.758,124.981 74.113,129.041 75.381 M112.143 124.397 C 109.841 125.326,110.000 119.129,110.000 207.715 C 110.000 261.671,110.136 289.106,110.405 289.609 C 111.432 291.528,132.200 292.116,133.930 290.274 L 134.800 289.348 134.800 207.728 L 134.800 126.108 133.971 125.054 L 133.142 124.000 123.071 124.025 C 117.532 124.039,112.614 124.206,112.143 124.397 M171.360 124.567 C 169.506 125.380,169.600 120.926,169.600 208.023 L 169.600 289.582 170.683 290.291 C 171.700 290.957,174.053 291.000,209.583 291.000 C 250.066 291.000,252.198 290.912,257.787 289.001 C 259.334 288.472,261.860 287.820,263.400 287.552 C 264.940 287.283,267.190 286.575,268.400 285.977 C 269.610 285.379,271.500 284.616,272.600 284.281 C 275.076 283.528,282.246 280.173,282.598 279.604 C 282.740 279.373,283.731 278.742,284.799 278.201 C 285.867 277.659,287.231 276.763,287.829 276.208 C 288.427 275.654,289.155 275.200,289.445 275.200 C 289.736 275.200,290.860 274.435,291.945 273.500 C 293.029 272.565,294.851 271.080,295.994 270.200 C 298.664 268.145,302.559 264.247,304.600 261.588 C 305.480 260.442,306.752 258.851,307.426 258.052 C 308.100 257.253,309.143 255.745,309.743 254.700 C 310.343 253.655,310.979 252.800,311.156 252.800 C 311.333 252.800,311.813 252.058,312.222 251.150 C 312.631 250.243,313.459 248.881,314.061 248.123 C 314.663 247.365,315.370 246.083,315.632 245.273 C 315.894 244.463,316.527 243.076,317.039 242.190 C 317.551 241.305,318.353 239.325,318.820 237.790 C 319.287 236.256,320.035 234.370,320.482 233.600 C 320.972 232.756,321.677 229.978,322.257 226.600 C 322.786 223.520,323.472 220.280,323.781 219.400 C 325.133 215.556,324.762 196.823,323.238 191.971 C 322.783 190.525,322.222 187.915,321.990 186.171 C 321.721 184.148,321.159 182.202,320.438 180.797 C 319.817 179.586,319.108 177.661,318.863 176.520 C 318.618 175.379,317.784 173.251,317.009 171.790 C 316.234 170.329,315.600 168.802,315.600 168.397 C 315.600 167.993,315.147 167.123,314.593 166.465 C 314.039 165.806,313.136 164.308,312.587 163.134 C 312.037 161.960,310.962 160.190,310.198 159.200 C 309.434 158.210,308.222 156.610,307.504 155.645 C 304.485 151.583,300.032 146.968,295.600 143.306 C 293.950 141.943,291.970 140.305,291.200 139.667 C 290.430 139.028,289.047 138.125,288.127 137.659 C 287.207 137.193,286.336 136.620,286.191 136.385 C 286.046 136.150,284.834 135.429,283.498 134.782 C 282.162 134.135,280.783 133.350,280.434 133.038 C 280.085 132.727,278.720 132.160,277.400 131.779 C 276.080 131.398,273.860 130.482,272.467 129.743 C 271.074 129.004,269.515 128.400,269.002 128.400 C 268.109 128.400,265.326 127.574,261.691 126.230 C 256.475 124.301,175.369 122.808,171.360 124.567 M133.152 125.742 C 133.483 126.141,133.575 147.942,133.501 208.042 L 133.400 289.800 123.544 289.907 C 117.711 289.970,113.262 289.852,112.644 289.617 L 111.600 289.220 111.600 207.791 L 111.600 126.361 112.900 125.796 C 114.755 124.990,132.488 124.943,133.152 125.742 M255.600 125.937 C 257.030 126.164,259.190 126.788,260.400 127.324 C 261.610 127.860,263.410 128.420,264.400 128.568 C 268.178 129.133,270.238 129.748,271.289 130.623 C 271.888 131.122,273.508 131.789,274.889 132.106 C 276.270 132.423,278.290 133.248,279.378 133.941 C 280.466 134.633,281.675 135.200,282.064 135.200 C 282.454 135.200,283.363 135.716,284.086 136.347 C 284.809 136.978,286.335 137.966,287.478 138.543 C 288.620 139.119,289.700 139.837,289.878 140.139 C 290.055 140.440,290.686 140.938,291.281 141.245 C 293.250 142.261,300.159 148.771,304.302 153.515 C 305.126 154.458,306.341 155.808,307.002 156.515 C 307.663 157.222,308.430 158.308,308.707 158.930 C 308.983 159.551,309.725 160.721,310.355 161.530 C 310.986 162.338,311.700 163.603,311.943 164.339 C 312.187 165.075,312.905 166.269,313.539 166.992 C 314.174 167.715,314.821 169.002,314.977 169.853 C 315.134 170.704,315.786 172.222,316.426 173.227 C 317.131 174.333,317.804 176.183,318.131 177.913 C 318.466 179.686,319.085 181.369,319.763 182.347 C 320.646 183.621,320.920 184.599,321.195 187.461 C 321.603 191.698,322.340 196.380,322.689 196.944 C 323.895 198.896,323.715 216.106,322.465 218.327 C 322.178 218.837,321.692 221.757,321.385 224.816 C 320.907 229.575,320.678 230.601,319.796 231.934 C 319.229 232.791,318.444 234.840,318.052 236.487 C 317.659 238.135,316.967 240.004,316.514 240.641 C 316.060 241.279,315.401 242.772,315.049 243.960 C 314.696 245.147,314.059 246.364,313.632 246.663 C 313.205 246.962,312.418 248.161,311.884 249.329 C 311.350 250.496,310.437 251.927,309.856 252.507 C 309.275 253.088,308.800 253.841,308.800 254.179 C 308.800 254.518,307.570 256.191,306.067 257.897 C 304.564 259.604,302.857 261.757,302.273 262.683 C 301.689 263.608,300.887 264.539,300.490 264.752 C 300.093 264.964,299.534 265.577,299.247 266.113 C 298.960 266.649,298.144 267.365,297.433 267.704 C 296.071 268.353,293.146 270.676,290.800 272.970 C 290.030 273.723,288.901 274.464,288.291 274.616 C 287.681 274.767,286.954 275.216,286.676 275.613 C 286.398 276.010,285.167 276.779,283.940 277.321 C 282.714 277.863,281.447 278.683,281.125 279.143 C 280.793 279.617,279.453 280.317,278.026 280.761 C 276.643 281.192,275.126 281.898,274.656 282.332 C 274.185 282.765,272.720 283.336,271.400 283.600 C 270.080 283.864,268.100 284.584,267.000 285.200 C 265.558 286.007,263.772 286.509,260.600 286.999 C 258.030 287.395,255.202 288.119,253.800 288.739 L 251.400 289.800 212.050 289.913 C 176.993 290.014,172.596 289.958,171.750 289.404 L 170.800 288.782 170.800 207.785 L 170.800 126.788 172.100 125.978 C 173.577 125.058,249.832 125.020,255.600 125.937 M196.036 143.949 C 195.506 144.098,194.696 144.723,194.236 145.339 L 193.400 146.459 193.296 207.197 L 193.192 267.936 194.250 268.768 C 196.512 270.548,250.311 269.875,253.441 268.029 C 254.183 267.591,256.249 266.956,258.031 266.618 C 261.489 265.962,261.762 265.861,263.000 264.786 C 263.440 264.403,264.803 263.804,266.030 263.455 C 267.256 263.105,268.606 262.433,269.030 261.963 C 269.453 261.492,270.765 260.679,271.945 260.156 C 273.124 259.633,274.744 258.674,275.545 258.026 C 280.169 254.281,284.596 249.954,285.405 248.390 C 285.744 247.736,286.198 247.200,286.415 247.200 C 286.632 247.200,287.436 246.222,288.200 245.026 C 288.965 243.831,289.793 242.728,290.041 242.575 C 290.288 242.422,290.856 241.465,291.302 240.448 C 291.749 239.432,292.525 238.107,293.028 237.504 C 293.530 236.901,294.144 235.433,294.391 234.242 C 294.639 233.050,295.378 231.264,296.035 230.272 C 296.964 228.869,297.358 227.609,297.812 224.586 C 298.150 222.336,298.725 220.169,299.180 219.433 C 301.160 216.228,301.145 198.508,299.156 193.508 C 298.695 192.349,298.055 189.781,297.733 187.803 C 297.310 185.209,296.833 183.733,296.022 182.508 C 295.404 181.574,294.684 179.964,294.424 178.930 C 294.164 177.895,293.414 176.438,292.759 175.692 C 292.103 174.945,291.465 173.824,291.340 173.201 C 291.215 172.577,290.593 171.568,289.957 170.958 C 289.320 170.349,288.800 169.598,288.800 169.289 C 288.800 168.536,279.308 158.887,278.241 158.555 C 277.778 158.411,276.724 157.688,275.899 156.947 C 275.073 156.206,274.162 155.600,273.874 155.600 C 273.585 155.600,272.826 155.053,272.186 154.385 C 271.497 153.666,270.175 152.924,268.945 152.567 C 267.802 152.235,266.642 151.691,266.366 151.360 C 265.569 150.398,264.640 150.032,261.450 149.422 C 259.690 149.085,257.812 148.422,256.889 147.811 C 255.526 146.910,254.558 146.699,249.560 146.218 C 246.392 145.914,243.293 145.470,242.674 145.232 C 242.055 144.994,240.975 144.797,240.274 144.794 C 239.573 144.791,238.280 144.529,237.400 144.212 C 235.701 143.599,198.138 143.361,196.036 143.949 M236.600 145.761 C 237.920 146.063,240.980 146.430,243.400 146.576 C 249.450 146.942,252.501 147.464,255.181 148.592 C 256.437 149.120,258.667 149.762,260.138 150.019 C 261.673 150.286,263.431 150.904,264.264 151.469 C 265.063 152.011,266.664 152.809,267.822 153.242 C 268.980 153.676,270.157 154.307,270.438 154.646 C 270.720 154.985,271.803 155.695,272.847 156.224 C 273.890 156.752,274.861 157.376,275.005 157.609 C 275.149 157.842,276.017 158.499,276.934 159.070 C 278.907 160.298,286.515 167.968,287.841 170.066 C 288.351 170.873,288.959 171.651,289.194 171.796 C 289.428 171.941,290.241 173.293,291.000 174.800 C 291.759 176.307,292.553 177.647,292.764 177.778 C 292.975 177.908,293.445 179.039,293.809 180.290 C 294.173 181.542,294.924 183.461,295.479 184.555 C 296.033 185.650,296.819 188.357,297.224 190.572 C 297.630 192.788,298.327 196.310,298.774 198.400 C 299.859 203.467,299.863 209.720,298.786 214.800 C 298.343 216.890,297.630 220.450,297.200 222.711 C 296.743 225.120,296.016 227.522,295.444 228.511 C 294.908 229.440,294.203 231.100,293.878 232.200 C 293.189 234.534,290.588 239.843,289.568 241.000 C 288.875 241.786,287.388 243.840,284.644 247.800 C 282.143 251.410,275.217 257.309,271.000 259.420 C 269.900 259.971,268.388 260.867,267.640 261.412 C 266.891 261.956,265.565 262.594,264.691 262.829 C 263.818 263.065,262.090 263.783,260.852 264.426 C 259.613 265.068,257.250 265.853,255.600 266.169 C 253.950 266.485,251.857 267.010,250.949 267.336 C 247.360 268.627,242.195 268.848,218.664 268.723 L 195.529 268.600 194.764 267.656 C 194.020 266.736,194.000 265.205,194.000 207.943 C 194.000 143.083,193.845 146.950,196.485 145.803 C 198.374 144.982,233.037 144.946,236.600 145.761 " stroke="none" fill="#dcecb0" fill-rule="evenodd"></path><path id="path4" d="M160.928 0.642 C 160.717 1.194,160.204 1.245,157.293 1.002 C 155.304 0.837,153.995 0.869,154.126 1.081 C 154.250 1.281,153.308 1.423,152.010 1.400 C 149.778 1.361,148.099 1.972,148.513 2.673 C 149.210 3.853,148.048 4.680,146.134 4.366 C 143.615 3.952,141.905 3.923,142.138 4.300 C 142.240 4.465,141.350 4.570,140.160 4.533 C 138.099 4.469,135.600 5.904,135.600 7.150 C 135.600 7.309,134.925 7.460,134.100 7.485 C 132.761 7.527,128.512 7.819,127.358 7.950 C 127.115 7.977,126.746 8.585,126.538 9.300 C 126.195 10.481,126.016 10.601,124.580 10.610 C 123.711 10.615,122.415 10.764,121.700 10.941 C 120.472 11.246,120.227 11.563,120.363 12.670 C 120.452 13.391,119.681 13.703,117.445 13.848 C 115.368 13.983,113.618 14.203,112.233 14.501 C 111.812 14.592,111.416 15.008,111.355 15.426 C 111.294 15.844,111.053 16.249,110.819 16.327 C 110.586 16.405,110.470 16.590,110.563 16.739 C 110.655 16.889,110.116 16.982,109.365 16.946 C 108.614 16.911,108.000 17.027,108.000 17.204 C 108.000 17.380,107.632 17.429,107.182 17.311 C 106.666 17.176,106.137 17.375,105.752 17.849 C 105.416 18.262,105.272 18.347,105.432 18.038 C 105.630 17.656,105.567 17.573,105.235 17.779 C 104.966 17.945,104.828 18.295,104.928 18.557 C 105.247 19.389,104.248 20.197,102.800 20.279 C 99.987 20.436,99.574 20.555,99.799 21.142 C 99.980 21.614,99.911 21.624,99.400 21.200 C 98.891 20.777,98.817 20.785,98.980 21.243 C 99.239 21.973,98.206 23.311,97.307 23.411 C 96.003 23.555,95.278 24.050,95.380 24.728 C 95.515 25.629,94.027 26.920,93.426 26.422 C 93.162 26.202,92.737 26.192,92.406 26.396 C 92.094 26.589,91.698 26.661,91.527 26.555 C 90.924 26.182,89.532 27.277,89.125 28.444 C 88.829 29.291,88.521 29.565,88.035 29.411 C 87.120 29.121,85.899 30.076,85.724 31.219 C 85.541 32.417,84.210 32.912,81.362 32.840 C 80.444 32.817,79.333 34.444,79.776 35.162 C 79.940 35.426,79.681 35.624,79.124 35.661 C 77.429 35.773,77.258 35.808,76.950 36.117 C 76.781 36.285,76.582 36.733,76.507 37.112 C 76.432 37.490,76.316 38.064,76.249 38.386 C 76.182 38.713,75.672 38.978,75.097 38.986 C 73.972 39.001,73.486 39.331,73.364 40.162 C 73.105 41.930,72.746 42.399,71.973 41.986 C 71.548 41.758,71.200 41.713,71.200 41.886 C 71.200 42.059,70.795 42.226,70.300 42.259 C 68.161 42.398,67.235 43.122,67.213 44.674 C 67.203 45.356,67.003 45.513,66.300 45.393 C 65.257 45.214,63.914 46.080,64.021 46.863 C 64.188 48.080,63.943 48.400,62.843 48.400 C 61.600 48.400,60.996 49.197,60.850 51.027 C 60.815 51.465,60.559 51.578,60.000 51.400 C 59.523 51.249,59.200 51.328,59.200 51.597 C 59.200 51.844,59.031 51.943,58.825 51.815 C 58.301 51.492,57.664 52.759,57.899 53.657 C 58.043 54.208,57.875 54.400,57.247 54.400 C 56.781 54.400,56.265 54.413,56.100 54.429 C 55.686 54.468,54.425 55.638,54.463 55.948 C 54.637 57.344,54.335 58.076,53.657 57.899 C 52.759 57.664,51.492 58.301,51.815 58.825 C 51.943 59.031,51.844 59.200,51.597 59.200 C 51.328 59.200,51.249 59.523,51.400 60.000 C 51.578 60.559,51.465 60.815,51.027 60.850 C 49.197 60.996,48.400 61.600,48.400 62.843 C 48.400 63.963,48.123 64.162,46.749 64.029 C 45.945 63.952,45.370 65.046,45.246 66.887 C 45.217 67.316,44.981 67.491,44.619 67.352 C 43.667 66.987,42.595 68.101,42.456 69.600 C 42.385 70.370,42.164 71.060,41.966 71.132 C 41.759 71.208,41.772 71.575,41.997 71.995 C 42.322 72.602,42.187 72.796,41.194 73.142 C 40.537 73.371,40.000 73.456,40.000 73.330 C 40.000 73.205,39.747 73.312,39.437 73.569 C 39.128 73.826,38.922 74.465,38.979 74.989 C 39.075 75.866,38.361 76.368,36.733 76.567 C 36.310 76.619,35.814 77.214,35.766 77.728 C 35.742 77.988,35.694 78.616,35.661 79.124 C 35.624 79.681,35.426 79.940,35.162 79.776 C 34.517 79.378,32.760 80.447,32.864 81.174 C 33.067 82.590,32.334 85.601,31.775 85.650 C 31.459 85.678,31.005 85.723,30.768 85.750 C 30.043 85.834,29.182 87.314,29.421 88.066 C 29.585 88.582,29.373 88.842,28.639 89.026 C 27.164 89.396,26.661 90.223,26.597 92.387 C 26.537 94.438,25.834 95.540,24.693 95.373 C 23.885 95.254,23.566 95.671,23.415 97.040 C 23.290 98.179,22.066 99.272,21.243 98.980 C 20.785 98.817,20.777 98.891,21.200 99.400 C 21.624 99.911,21.614 99.980,21.142 99.799 C 20.555 99.574,20.436 99.987,20.279 102.800 C 20.197 104.248,19.389 105.247,18.557 104.928 C 18.295 104.828,17.945 104.966,17.779 105.235 C 17.573 105.567,17.656 105.630,18.038 105.432 C 18.347 105.272,18.276 105.406,17.879 105.730 C 17.367 106.148,17.136 106.953,17.079 108.517 C 17.036 109.727,16.880 110.644,16.734 110.556 C 16.588 110.467,16.405 110.586,16.327 110.819 C 16.249 111.053,15.844 111.294,15.426 111.355 C 15.008 111.416,14.592 111.812,14.501 112.233 C 14.203 113.618,13.983 115.368,13.848 117.445 C 13.695 119.798,13.351 120.544,12.560 120.240 C 11.642 119.888,10.635 121.908,10.617 124.141 C 10.601 126.080,10.543 126.185,9.300 126.542 C 8.585 126.748,7.977 127.115,7.950 127.358 C 7.819 128.512,7.527 132.761,7.485 134.100 C 7.460 134.925,7.309 135.600,7.150 135.600 C 5.904 135.600,4.469 138.099,4.533 140.160 C 4.570 141.350,4.465 142.240,4.300 142.138 C 3.923 141.905,3.952 143.615,4.366 146.134 C 4.680 148.048,3.853 149.210,2.673 148.513 C 1.972 148.099,1.361 149.778,1.400 152.010 C 1.423 153.308,1.281 154.250,1.081 154.126 C 0.869 153.995,0.839 155.326,1.007 157.352 C 1.260 160.381,1.216 160.800,0.647 160.800 C 0.055 160.800,0.000 164.165,0.000 200.200 C 0.000 236.235,0.055 239.600,0.647 239.600 C 1.216 239.600,1.260 240.019,1.007 243.048 C 0.849 244.945,0.873 246.402,1.060 246.286 C 1.247 246.171,1.384 247.078,1.365 248.303 C 1.324 250.878,2.137 252.098,3.633 251.707 C 4.519 251.476,4.523 251.499,4.251 254.768 C 4.084 256.769,4.122 257.972,4.348 257.832 C 4.564 257.699,4.668 258.444,4.596 259.609 C 4.437 262.202,4.883 263.816,5.738 263.744 C 6.102 263.714,6.400 263.849,6.400 264.044 C 6.400 264.240,6.673 264.400,7.008 264.400 C 7.456 264.400,7.549 264.662,7.364 265.399 C 7.227 265.949,7.245 266.714,7.406 267.099 C 7.566 267.485,7.744 268.963,7.801 270.384 C 7.858 271.805,8.061 273.023,8.252 273.090 C 10.201 273.775,10.599 274.271,10.524 275.923 C 10.483 276.845,10.602 277.600,10.789 277.600 C 10.976 277.600,11.078 277.915,11.016 278.300 C 10.858 279.277,11.509 279.972,12.417 279.797 C 13.259 279.634,14.236 282.203,13.833 283.520 C 13.718 283.894,13.806 284.920,14.028 285.800 C 14.250 286.680,14.486 287.670,14.554 288.000 C 14.621 288.330,15.006 288.664,15.410 288.743 C 16.594 288.974,16.993 289.678,17.111 291.747 C 17.247 294.127,17.776 295.200,18.814 295.200 C 19.246 295.200,19.600 295.391,19.600 295.624 C 19.600 295.857,19.735 295.964,19.900 295.862 C 20.065 295.761,20.228 296.335,20.261 297.139 C 20.359 299.462,20.545 300.400,20.909 300.400 C 21.095 300.400,21.133 300.584,20.994 300.810 C 20.855 301.035,20.889 301.180,21.070 301.131 C 21.804 300.932,23.204 301.697,23.261 302.327 C 23.294 302.697,23.342 303.201,23.367 303.446 C 23.441 304.175,24.461 305.209,24.863 304.961 C 25.537 304.545,26.464 305.692,26.224 306.646 C 26.099 307.144,26.161 307.652,26.361 307.776 C 26.561 307.900,26.635 308.344,26.525 308.763 C 26.288 309.673,27.671 311.200,28.733 311.200 C 29.283 311.200,29.467 311.503,29.467 312.413 C 29.467 313.892,29.932 314.405,31.418 314.563 C 32.422 314.670,32.569 314.865,32.690 316.242 C 32.765 317.099,32.866 318.218,32.913 318.728 C 32.987 319.516,34.400 320.907,34.400 320.191 C 34.400 319.557,35.656 321.288,35.710 321.996 C 35.743 322.438,36.095 322.903,36.491 323.029 C 36.887 323.155,37.091 323.452,36.944 323.691 C 36.797 323.929,36.841 324.022,37.043 323.897 C 37.534 323.594,38.990 324.471,39.040 325.100 C 39.161 326.614,39.238 326.760,39.800 326.545 C 40.130 326.418,40.400 326.508,40.400 326.745 C 40.400 326.981,40.670 327.071,41.000 326.945 C 41.330 326.818,41.628 326.869,41.663 327.057 C 41.697 327.246,41.785 327.850,41.859 328.400 C 42.292 331.642,42.498 332.082,43.852 332.647 C 44.988 333.122,45.444 333.639,45.132 334.100 C 44.915 334.421,46.106 335.982,46.420 335.788 C 46.629 335.658,46.800 335.743,46.800 335.976 C 46.800 336.209,46.991 336.400,47.224 336.400 C 47.457 336.400,47.537 336.222,47.403 336.005 C 47.263 335.778,47.423 335.711,47.779 335.847 C 48.339 336.062,48.600 336.816,48.433 337.742 C 48.336 338.283,49.254 339.214,49.645 338.972 C 49.840 338.851,50.000 338.956,50.000 339.203 C 50.000 339.482,50.327 339.550,50.861 339.381 C 51.567 339.157,51.673 339.234,51.451 339.810 C 51.123 340.667,52.205 342.446,52.901 342.191 C 53.698 341.899,54.432 342.585,54.554 343.737 C 54.714 345.229,55.179 345.562,57.322 345.719 C 57.852 345.757,57.986 346.000,57.828 346.630 C 57.602 347.533,58.853 349.062,59.494 348.666 C 60.038 348.329,60.803 348.978,60.987 349.931 C 61.220 351.140,61.588 351.654,62.028 351.383 C 62.232 351.256,62.400 351.356,62.400 351.603 C 62.400 351.872,62.723 351.951,63.200 351.800 C 63.957 351.560,64.254 352.111,64.033 353.342 C 63.936 353.883,64.854 354.814,65.245 354.572 C 65.440 354.451,65.600 354.543,65.600 354.776 C 65.600 355.009,65.791 355.200,66.024 355.200 C 66.257 355.200,66.337 355.022,66.203 354.805 C 66.063 354.578,66.223 354.511,66.579 354.647 C 66.921 354.778,67.206 355.181,67.213 355.543 C 67.231 356.482,68.269 357.728,68.773 357.416 C 69.008 357.271,69.200 357.363,69.200 357.619 C 69.200 357.876,69.434 357.996,69.720 357.886 C 70.006 357.776,70.681 357.931,71.220 358.229 C 72.436 358.902,72.936 358.943,72.562 358.338 C 72.398 358.073,72.451 357.984,72.687 358.130 C 72.912 358.269,73.199 358.882,73.324 359.492 C 73.449 360.101,73.941 360.838,74.417 361.130 C 74.894 361.421,75.166 361.468,75.021 361.234 C 74.863 360.978,74.996 360.900,75.355 361.038 C 75.683 361.164,76.064 361.779,76.201 362.406 C 76.496 363.746,77.007 364.236,78.502 364.611 C 79.106 364.763,79.600 365.103,79.600 365.367 C 79.600 366.495,80.745 367.352,82.449 367.499 C 83.412 367.582,84.515 367.677,84.900 367.710 C 85.285 367.744,85.623 368.093,85.650 368.486 C 85.737 369.722,85.791 369.925,86.133 370.267 C 86.478 370.611,86.681 370.665,87.951 370.750 C 88.382 370.779,88.915 371.312,89.200 372.000 C 89.652 373.091,90.048 373.382,90.900 373.247 C 91.065 373.221,91.200 373.372,91.200 373.583 C 91.200 373.794,91.830 373.917,92.600 373.856 C 93.370 373.795,94.000 373.912,94.000 374.116 C 94.000 374.319,94.270 374.382,94.600 374.255 C 94.957 374.118,95.220 374.263,95.250 374.613 C 95.386 376.211,95.837 376.786,96.808 376.598 C 97.244 376.515,97.600 376.635,97.600 376.866 C 97.600 377.097,97.840 377.193,98.133 377.081 C 98.427 376.968,98.697 377.129,98.733 377.438 C 98.770 377.747,98.830 378.267,98.867 378.594 C 98.942 379.264,100.181 379.782,100.796 379.402 C 101.018 379.265,101.200 379.333,101.200 379.553 C 101.200 379.774,101.560 379.885,102.000 379.800 C 102.440 379.715,102.800 379.819,102.800 380.031 C 102.800 380.242,103.250 380.302,103.800 380.164 C 104.781 379.918,104.996 380.192,104.835 381.479 C 104.756 382.105,106.301 382.924,107.031 382.643 C 107.344 382.523,107.600 382.610,107.600 382.836 C 107.600 383.062,107.768 383.144,107.972 383.017 C 108.177 382.891,108.467 382.984,108.616 383.226 C 108.765 383.467,109.310 383.559,109.828 383.429 C 110.725 383.204,111.432 383.841,111.568 385.000 C 111.648 385.675,115.778 386.578,118.500 386.515 C 119.352 386.495,120.026 386.679,120.061 386.940 C 120.094 387.193,120.142 387.601,120.167 387.846 C 120.275 388.917,121.249 389.463,122.993 389.432 C 123.987 389.414,124.800 389.535,124.800 389.700 C 124.800 389.865,125.157 390.000,125.592 390.000 C 126.104 390.000,126.474 390.354,126.636 391.000 C 126.774 391.550,127.092 392.019,127.343 392.042 C 127.595 392.065,128.548 392.110,129.462 392.142 C 130.376 392.174,131.033 392.346,130.922 392.526 C 130.812 392.705,131.324 392.745,132.061 392.616 C 133.895 392.295,135.768 392.880,135.939 393.829 C 136.217 395.376,136.801 395.516,144.000 395.765 C 148.060 395.906,148.205 395.942,148.338 396.855 C 148.619 398.772,150.494 399.416,154.100 398.834 C 155.225 398.652,156.000 398.679,156.000 398.899 C 156.000 399.104,157.078 399.210,158.396 399.136 C 160.051 399.042,160.852 399.155,160.984 399.500 C 161.230 400.144,239.600 400.244,239.600 399.600 C 239.600 399.380,240.579 399.200,241.776 399.200 C 242.973 399.200,244.048 399.046,244.164 398.859 C 244.280 398.670,245.373 398.674,246.600 398.866 C 248.057 399.095,249.096 399.069,249.612 398.793 C 250.046 398.562,250.400 398.496,250.400 398.648 C 250.400 398.800,250.754 398.604,251.186 398.212 C 251.619 397.821,251.934 397.118,251.886 396.650 C 251.806 395.858,251.957 395.809,254.100 395.937 C 255.439 396.017,256.400 395.909,256.400 395.679 C 256.400 395.428,256.946 395.410,257.900 395.630 C 258.725 395.820,259.738 395.871,260.152 395.744 C 260.566 395.617,261.444 395.476,262.104 395.430 C 263.281 395.349,264.400 394.334,264.400 393.348 C 264.400 392.882,266.165 392.524,268.900 392.436 C 271.406 392.355,272.234 392.166,272.867 391.533 C 273.233 391.167,273.430 390.763,273.303 390.636 C 273.176 390.509,273.638 390.292,274.330 390.154 C 275.021 390.016,275.517 389.790,275.432 389.651 C 275.347 389.513,276.097 389.400,277.099 389.400 C 278.797 389.400,278.975 389.298,279.692 387.916 C 280.376 386.597,280.591 386.458,281.631 386.666 C 282.274 386.795,282.801 386.743,282.801 386.550 C 282.802 386.358,283.722 386.178,284.846 386.152 C 285.969 386.125,287.004 385.945,287.144 385.752 C 287.285 385.558,287.670 385.400,288.000 385.400 C 288.330 385.400,288.600 385.130,288.600 384.800 C 288.600 383.839,289.522 383.121,290.399 383.400 C 290.848 383.542,291.200 383.472,291.200 383.240 C 291.200 383.012,291.470 382.929,291.800 383.055 C 292.130 383.182,292.400 383.092,292.400 382.855 C 292.400 382.619,292.656 382.523,292.969 382.643 C 293.836 382.976,295.129 382.111,295.272 381.101 C 295.373 380.388,295.623 380.223,296.470 380.310 C 297.058 380.371,297.656 380.233,297.798 380.004 C 297.939 379.775,298.223 379.691,298.428 379.817 C 298.632 379.944,298.800 379.846,298.800 379.600 C 298.800 379.354,298.982 379.265,299.204 379.402 C 299.920 379.845,301.200 379.172,301.200 378.353 C 301.200 377.645,303.630 376.119,304.453 376.310 C 304.592 376.342,304.682 376.068,304.653 375.701 C 304.589 374.902,306.129 374.081,308.189 373.817 C 309.639 373.632,311.018 372.885,310.629 372.495 C 310.524 372.391,310.701 372.042,311.023 371.720 C 311.344 371.399,311.527 371.005,311.429 370.847 C 311.331 370.688,311.786 370.595,312.441 370.640 C 313.699 370.727,315.131 369.260,314.611 368.418 C 314.463 368.179,314.706 368.000,315.176 368.000 C 315.629 368.000,316.000 367.796,316.000 367.548 C 316.000 367.254,316.491 367.175,317.400 367.323 C 318.170 367.447,318.800 367.381,318.800 367.175 C 318.800 366.969,319.010 366.845,319.267 366.900 C 319.524 366.955,319.962 366.563,320.240 366.029 C 320.758 365.033,322.372 363.935,322.867 364.242 C 323.020 364.336,323.287 364.185,323.462 363.907 C 323.783 363.394,323.830 363.193,323.939 361.857 C 323.980 361.356,324.205 361.193,324.629 361.356 C 325.922 361.852,327.928 359.572,326.658 359.051 C 326.406 358.948,326.605 358.849,327.100 358.832 C 327.595 358.814,328.000 358.645,328.000 358.455 C 328.000 358.265,328.453 358.160,329.006 358.220 C 329.559 358.281,330.236 358.107,330.510 357.833 C 330.783 357.560,331.214 357.405,331.467 357.489 C 331.720 357.573,332.061 357.425,332.225 357.159 C 332.427 356.833,332.341 356.771,331.962 356.968 C 331.653 357.128,331.733 356.988,332.140 356.656 C 332.547 356.325,332.761 355.861,332.616 355.627 C 332.471 355.392,332.498 355.185,332.676 355.167 C 332.854 355.148,333.403 355.089,333.895 355.034 C 335.123 354.897,336.475 353.266,336.166 352.293 C 335.965 351.660,336.066 351.567,336.726 351.777 C 337.287 351.955,337.845 351.719,338.566 350.998 C 339.610 349.953,339.933 349.347,339.205 349.797 C 338.978 349.937,338.911 349.777,339.047 349.421 C 339.178 349.079,339.536 348.800,339.843 348.800 C 340.149 348.800,340.490 348.800,340.600 348.800 C 341.102 348.800,342.244 347.348,342.091 346.906 C 341.996 346.634,342.432 346.229,343.059 346.006 C 344.957 345.331,345.327 345.004,345.809 343.573 C 346.063 342.818,346.525 342.200,346.836 342.200 C 347.374 342.200,348.675 341.221,348.695 340.800 C 348.755 339.574,348.889 339.252,349.421 339.047 C 349.777 338.911,349.937 338.978,349.797 339.205 C 349.347 339.933,349.953 339.610,350.998 338.566 C 351.719 337.845,351.955 337.287,351.777 336.726 C 351.567 336.066,351.660 335.965,352.293 336.166 C 353.266 336.475,354.897 335.123,355.034 333.895 C 355.089 333.403,355.148 332.854,355.167 332.676 C 355.185 332.498,355.392 332.471,355.627 332.616 C 355.861 332.761,356.325 332.547,356.656 332.140 C 356.988 331.733,357.128 331.653,356.968 331.962 C 356.770 332.344,356.833 332.427,357.165 332.221 C 357.434 332.055,357.562 331.679,357.450 331.385 C 357.337 331.092,357.419 330.794,357.631 330.723 C 357.843 330.652,358.058 330.011,358.108 329.298 C 358.159 328.585,358.314 328.001,358.453 328.001 C 358.593 328.000,358.798 327.652,358.909 327.226 C 359.055 326.668,359.346 326.513,359.952 326.671 C 360.840 326.904,361.696 325.529,361.305 324.500 C 361.198 324.221,361.443 323.973,361.857 323.939 C 363.193 323.830,363.394 323.783,363.907 323.462 C 364.185 323.287,364.336 323.020,364.242 322.867 C 363.935 322.372,365.033 320.758,366.029 320.240 C 366.563 319.962,366.955 319.524,366.900 319.267 C 366.845 319.010,366.969 318.800,367.175 318.800 C 367.381 318.800,367.447 318.170,367.323 317.400 C 367.175 316.491,367.254 316.000,367.548 316.000 C 367.796 316.000,368.000 315.646,368.000 315.213 C 368.000 314.728,368.201 314.502,368.523 314.626 C 369.366 314.949,370.682 313.513,370.626 312.331 C 370.599 311.743,370.702 311.340,370.856 311.435 C 371.010 311.530,371.399 311.344,371.720 311.023 C 372.042 310.701,372.391 310.524,372.495 310.629 C 372.768 310.901,373.452 309.963,373.794 308.850 C 373.988 308.218,373.943 307.988,373.660 308.163 C 373.425 308.308,373.495 307.925,373.814 307.313 C 374.134 306.701,374.396 305.997,374.398 305.749 C 374.399 305.501,374.705 305.051,375.077 304.749 C 375.653 304.281,375.703 304.283,375.415 304.762 C 375.199 305.120,375.227 305.231,375.492 305.067 C 375.720 304.926,376.289 303.998,376.756 303.005 C 377.330 301.783,377.853 301.200,378.375 301.200 C 379.175 301.200,379.839 299.910,379.402 299.204 C 379.265 298.982,379.354 298.800,379.600 298.800 C 379.846 298.800,379.944 298.632,379.817 298.428 C 379.691 298.223,379.775 297.939,380.004 297.798 C 380.233 297.656,380.371 297.058,380.310 296.470 C 380.223 295.623,380.388 295.373,381.101 295.272 C 382.111 295.129,382.976 293.836,382.643 292.969 C 382.523 292.656,382.594 292.400,382.800 292.400 C 383.006 292.400,383.071 292.130,382.945 291.800 C 382.818 291.470,382.926 291.200,383.184 291.200 C 383.472 291.200,383.555 290.890,383.400 290.399 C 383.121 289.522,383.839 288.600,384.800 288.600 C 385.130 288.600,385.400 288.330,385.400 288.000 C 385.400 287.670,385.558 287.285,385.752 287.144 C 385.945 287.004,386.125 285.987,386.152 284.884 C 386.178 283.782,386.349 282.971,386.532 283.083 C 386.714 283.195,386.779 282.470,386.675 281.472 C 386.524 280.027,386.600 279.702,387.048 279.874 C 387.357 279.992,387.849 279.891,388.142 279.648 C 388.434 279.406,388.802 279.335,388.958 279.491 C 389.114 279.648,389.112 279.437,388.953 279.022 C 388.775 278.557,388.817 278.363,389.064 278.516 C 389.308 278.667,389.451 278.086,389.432 277.019 C 389.414 276.061,389.513 275.346,389.651 275.432 C 389.790 275.517,390.016 275.021,390.154 274.330 C 390.292 273.638,390.509 273.176,390.636 273.303 C 390.763 273.430,391.167 273.233,391.533 272.867 C 392.166 272.234,392.355 271.406,392.436 268.900 C 392.524 266.165,392.882 264.400,393.348 264.400 C 394.334 264.400,395.349 263.281,395.430 262.104 C 395.476 261.444,395.617 260.566,395.744 260.152 C 395.871 259.738,395.820 258.725,395.630 257.900 C 395.413 256.961,395.429 256.400,395.672 256.400 C 395.885 256.400,396.030 255.545,395.994 254.500 C 395.896 251.630,395.925 251.522,396.733 251.779 C 397.187 251.923,397.743 251.705,398.195 251.206 C 398.596 250.763,398.800 250.400,398.648 250.400 C 398.496 250.400,398.562 250.046,398.793 249.612 C 399.069 249.096,399.095 248.057,398.866 246.600 C 398.674 245.373,398.670 244.280,398.859 244.164 C 399.046 244.048,399.200 242.973,399.200 241.776 C 399.200 240.579,399.380 239.600,399.600 239.600 C 399.864 239.600,400.000 226.200,400.000 200.200 C 400.000 168.946,399.897 160.800,399.500 160.801 C 399.140 160.801,399.038 160.127,399.136 158.401 C 399.210 157.080,399.104 156.000,398.899 156.000 C 398.679 156.000,398.652 155.225,398.834 154.100 C 399.416 150.494,398.772 148.619,396.855 148.338 C 395.942 148.205,395.906 148.060,395.765 144.000 C 395.516 136.801,395.376 136.217,393.829 135.939 C 392.880 135.768,392.295 133.895,392.616 132.061 C 392.745 131.324,392.705 130.812,392.526 130.922 C 392.346 131.033,392.174 130.376,392.142 129.462 C 392.110 128.548,392.065 127.595,392.042 127.343 C 392.019 127.092,391.550 126.774,391.000 126.636 C 390.354 126.474,390.000 126.104,390.000 125.592 C 390.000 125.157,389.865 124.800,389.700 124.800 C 389.535 124.800,389.414 123.987,389.432 122.993 C 389.463 121.249,388.917 120.275,387.846 120.167 C 387.601 120.142,387.193 120.094,386.940 120.061 C 386.679 120.026,386.495 119.352,386.515 118.500 C 386.578 115.778,385.675 111.648,385.000 111.568 C 383.916 111.441,383.175 110.709,383.403 109.991 C 383.536 109.572,383.417 108.818,383.138 108.315 C 382.860 107.812,382.677 107.177,382.733 106.905 C 382.881 106.170,382.031 104.765,381.479 104.835 C 380.192 104.996,379.918 104.781,380.164 103.800 C 380.305 103.239,380.242 102.800,380.020 102.800 C 379.803 102.800,379.722 102.548,379.840 102.240 C 379.958 101.933,379.859 101.560,379.621 101.413 C 379.382 101.265,379.292 100.976,379.419 100.769 C 379.744 100.243,379.217 98.742,378.799 99.001 C 378.266 99.330,376.503 97.483,376.620 96.717 C 376.677 96.342,376.516 95.862,376.262 95.651 C 375.804 95.271,375.573 95.200,374.800 95.200 C 374.580 95.200,374.400 94.930,374.400 94.600 C 374.400 94.270,374.245 94.000,374.055 94.000 C 373.865 94.000,373.780 93.370,373.865 92.600 C 373.951 91.811,373.840 91.200,373.609 91.200 C 373.384 91.200,373.221 91.065,373.247 90.900 C 373.382 90.048,373.091 89.652,372.000 89.200 C 371.312 88.915,370.779 88.382,370.750 87.951 C 370.665 86.681,370.611 86.478,370.267 86.133 C 369.925 85.791,369.722 85.737,368.486 85.650 C 368.093 85.623,367.744 85.285,367.710 84.900 C 367.677 84.515,367.582 83.412,367.499 82.449 C 367.352 80.739,366.495 79.600,365.355 79.600 C 365.085 79.600,364.748 79.072,364.606 78.428 C 364.311 77.084,363.872 76.659,362.225 76.129 C 361.579 75.920,360.970 75.511,360.873 75.219 C 360.762 74.887,360.876 74.800,361.178 74.986 C 361.514 75.194,361.500 75.028,361.131 74.437 C 360.565 73.532,359.437 73.006,358.845 73.372 C 358.647 73.495,358.377 73.317,358.246 72.977 C 358.092 72.573,358.170 72.458,358.473 72.645 C 358.796 72.844,358.844 72.699,358.632 72.166 C 358.465 71.745,358.244 70.950,358.141 70.400 C 358.037 69.850,357.782 69.340,357.574 69.266 C 357.366 69.192,357.304 68.955,357.438 68.739 C 357.733 68.262,356.452 67.230,355.543 67.213 C 355.181 67.206,354.778 66.921,354.647 66.579 C 354.511 66.223,354.578 66.063,354.805 66.203 C 355.022 66.337,355.200 66.257,355.200 66.024 C 355.200 65.791,355.009 65.600,354.776 65.600 C 354.543 65.600,354.451 65.440,354.572 65.245 C 354.814 64.854,353.883 63.936,353.342 64.033 C 352.111 64.254,351.560 63.957,351.800 63.200 C 351.951 62.723,351.872 62.400,351.603 62.400 C 351.356 62.400,351.256 62.232,351.383 62.028 C 351.654 61.588,351.140 61.220,349.931 60.987 C 348.978 60.803,348.329 60.038,348.666 59.494 C 349.023 58.915,347.521 57.571,346.779 57.807 C 346.167 58.001,345.622 57.081,345.433 55.533 C 345.368 55.004,344.781 54.666,343.737 54.554 C 342.585 54.432,341.899 53.698,342.191 52.901 C 342.446 52.205,340.667 51.123,339.810 51.451 C 339.234 51.673,339.157 51.567,339.381 50.861 C 339.550 50.327,339.482 50.000,339.203 50.000 C 338.956 50.000,338.851 49.840,338.972 49.645 C 339.214 49.254,338.283 48.336,337.742 48.433 C 336.816 48.600,336.062 48.339,335.847 47.779 C 335.711 47.423,335.778 47.263,336.005 47.403 C 336.222 47.537,336.400 47.457,336.400 47.224 C 336.400 46.991,336.209 46.800,335.976 46.800 C 335.743 46.800,335.658 46.629,335.788 46.420 C 335.982 46.106,334.421 44.915,334.100 45.132 C 333.635 45.447,333.119 44.980,332.626 43.800 C 332.117 42.583,330.999 41.968,330.261 42.500 C 330.185 42.555,329.841 42.366,329.497 42.081 C 329.086 41.740,328.784 41.702,328.617 41.972 C 328.281 42.517,326.817 41.622,327.050 41.015 C 327.268 40.445,325.745 38.800,324.998 38.800 C 324.320 38.800,323.506 37.441,323.914 36.988 C 324.071 36.814,323.988 36.793,323.729 36.942 C 323.461 37.095,323.159 36.901,323.029 36.491 C 322.903 36.095,322.438 35.743,321.996 35.710 C 321.292 35.657,319.555 34.400,320.186 34.400 C 320.319 34.400,320.228 34.026,319.983 33.569 C 319.716 33.069,319.300 32.829,318.940 32.968 C 318.611 33.094,317.973 33.000,317.523 32.759 C 317.072 32.517,316.808 32.489,316.935 32.695 C 317.073 32.918,316.644 32.907,315.884 32.669 C 314.932 32.371,314.584 32.015,314.540 31.293 C 314.459 29.987,313.863 29.467,312.450 29.467 C 311.483 29.467,311.234 29.268,311.051 28.355 C 310.774 26.970,309.630 26.334,307.354 26.300 C 305.627 26.274,304.505 25.600,304.961 24.863 C 305.209 24.461,304.175 23.441,303.446 23.367 C 303.201 23.342,302.697 23.294,302.327 23.261 C 301.697 23.204,300.932 21.804,301.131 21.070 C 301.180 20.889,301.035 20.855,300.810 20.994 C 300.584 21.133,300.400 21.087,300.400 20.890 C 300.400 20.470,300.025 20.390,297.539 20.281 C 296.515 20.237,295.760 20.065,295.862 19.900 C 295.964 19.735,295.857 19.600,295.624 19.600 C 295.391 19.600,295.200 19.246,295.200 18.814 C 295.200 17.771,293.972 17.164,291.677 17.074 C 289.681 16.995,288.974 16.594,288.743 15.410 C 288.664 15.006,288.330 14.621,288.000 14.554 C 287.670 14.486,286.680 14.250,285.800 14.028 C 284.920 13.806,283.894 13.718,283.520 13.833 C 282.203 14.236,279.634 13.259,279.797 12.417 C 279.972 11.509,279.277 10.858,278.300 11.016 C 277.915 11.078,277.600 10.976,277.600 10.789 C 277.600 10.602,276.845 10.483,275.923 10.524 C 274.271 10.599,273.775 10.201,273.090 8.252 C 273.023 8.061,271.805 7.858,270.384 7.801 C 268.963 7.744,267.485 7.566,267.099 7.406 C 266.714 7.245,265.949 7.227,265.399 7.364 C 264.662 7.549,264.400 7.456,264.400 7.008 C 264.400 6.673,264.240 6.400,264.044 6.400 C 263.849 6.400,263.714 6.102,263.744 5.738 C 263.813 4.922,262.502 4.545,259.734 4.584 C 258.598 4.600,257.754 4.475,257.858 4.307 C 258.085 3.939,256.931 3.954,254.100 4.357 C 252.945 4.522,251.977 4.554,251.949 4.428 C 251.921 4.303,251.854 3.764,251.800 3.232 C 251.658 1.825,250.707 1.325,248.250 1.365 C 247.055 1.384,246.171 1.247,246.286 1.060 C 246.402 0.873,244.945 0.849,243.048 1.007 C 240.019 1.260,239.600 1.216,239.600 0.647 C 239.600 -0.344,161.309 -0.349,160.928 0.642 M129.749 71.576 C 130.382 71.819,131.239 72.451,131.656 72.980 C 132.072 73.509,133.031 74.146,133.787 74.396 C 134.543 74.645,135.271 75.194,135.405 75.614 C 135.538 76.035,136.175 76.755,136.820 77.214 C 137.653 77.808,138.182 78.705,138.650 80.324 C 139.012 81.576,139.717 83.089,140.217 83.686 C 141.967 85.778,141.973 91.690,140.228 94.400 C 139.732 95.170,139.022 96.719,138.650 97.842 C 138.183 99.252,137.666 100.024,136.976 100.338 C 136.426 100.589,135.616 101.406,135.174 102.154 C 134.417 103.437,133.541 103.980,131.200 104.619 C 130.650 104.769,129.840 105.219,129.400 105.619 C 126.888 107.903,118.007 107.819,115.850 105.492 C 115.348 104.950,114.266 104.286,113.444 104.015 C 112.526 103.712,111.814 103.164,111.597 102.593 C 111.403 102.083,110.740 101.423,110.123 101.127 C 109.506 100.832,108.685 99.917,108.298 99.095 C 107.910 98.273,107.420 97.600,107.207 97.600 C 104.639 97.600,104.497 83.796,107.034 80.759 C 107.786 79.860,108.400 78.863,108.400 78.543 C 108.400 77.666,112.246 74.000,113.167 74.000 C 113.610 74.000,114.522 73.463,115.194 72.806 C 115.866 72.149,116.818 71.526,117.308 71.421 C 117.799 71.317,118.560 71.143,119.000 71.034 C 120.366 70.698,128.538 71.110,129.749 71.576 M134.339 121.769 C 134.944 122.081,135.925 123.231,136.519 124.323 L 137.600 126.308 137.600 208.034 L 137.600 289.759 135.555 291.680 L 133.509 293.600 122.915 293.600 C 113.938 293.600,112.111 293.500,110.943 292.946 C 108.181 291.636,108.382 298.674,108.496 207.113 C 108.610 116.266,108.434 122.366,110.967 121.630 C 113.161 120.993,133.067 121.111,134.339 121.769 M249.007 121.738 C 250.770 122.025,252.702 122.579,253.298 122.970 C 254.073 123.478,255.728 123.784,259.092 124.040 C 264.864 124.481,265.464 124.615,266.840 125.772 C 267.608 126.419,268.865 126.831,271.060 127.158 C 273.590 127.534,274.415 127.841,275.393 128.771 C 276.171 129.511,277.239 130.021,278.400 130.206 C 280.576 130.553,281.557 131.037,282.494 132.229 C 282.926 132.778,283.863 133.242,284.894 133.416 C 286.058 133.612,286.962 134.107,287.793 135.001 C 288.457 135.716,289.450 136.433,290.000 136.595 C 290.550 136.756,291.540 137.380,292.200 137.981 C 292.860 138.582,294.120 139.502,295.000 140.025 C 295.880 140.548,297.161 141.566,297.847 142.288 C 298.533 143.009,299.286 143.600,299.520 143.600 C 299.754 143.600,300.062 143.967,300.205 144.415 C 300.347 144.863,301.176 145.680,302.047 146.230 C 302.918 146.780,303.797 147.667,304.001 148.202 C 304.204 148.737,304.746 149.406,305.204 149.687 C 306.219 150.312,309.915 155.300,310.630 157.009 C 310.914 157.690,311.600 158.454,312.153 158.706 C 312.821 159.010,313.300 159.684,313.575 160.708 C 313.804 161.557,314.449 162.682,315.008 163.208 C 315.572 163.737,316.307 165.151,316.658 166.381 C 317.006 167.602,317.608 168.960,317.995 169.400 C 319.007 170.548,319.427 171.510,320.005 174.000 C 320.286 175.210,320.925 176.691,321.424 177.290 C 322.406 178.469,322.593 179.120,323.186 183.425 C 323.401 184.979,324.076 187.319,324.688 188.625 L 325.800 191.000 325.800 207.400 L 325.800 223.800 324.528 226.600 C 323.756 228.300,323.158 230.397,323.004 231.937 C 322.704 234.959,322.297 236.131,321.029 237.639 C 320.449 238.328,319.970 239.564,319.798 240.818 C 319.607 242.204,319.158 243.278,318.411 244.134 C 317.804 244.830,317.016 246.404,316.662 247.632 C 316.190 249.267,315.753 249.984,315.029 250.314 C 314.378 250.611,313.897 251.295,313.622 252.319 C 313.392 253.174,312.846 254.197,312.408 254.593 C 311.971 254.988,311.082 256.253,310.433 257.403 C 309.784 258.553,308.979 259.599,308.645 259.728 C 308.310 259.856,307.676 260.667,307.236 261.529 C 306.796 262.392,306.066 263.194,305.613 263.313 C 305.154 263.433,304.521 264.170,304.183 264.978 C 303.841 265.798,303.158 266.588,302.613 266.795 C 302.083 266.997,301.450 267.533,301.207 267.987 C 300.964 268.440,300.053 269.261,299.183 269.811 C 298.312 270.360,297.600 271.074,297.600 271.397 C 297.600 271.720,296.902 272.340,296.049 272.775 C 295.196 273.210,294.395 273.835,294.269 274.165 C 294.142 274.494,293.343 275.119,292.492 275.553 C 291.641 275.987,290.175 276.986,289.234 277.771 C 288.294 278.557,287.172 279.200,286.742 279.200 C 286.311 279.200,285.383 279.816,284.680 280.568 C 283.906 281.396,282.689 282.137,281.600 282.444 C 280.610 282.723,279.230 283.438,278.534 284.033 C 277.695 284.751,276.578 285.211,275.218 285.398 C 274.014 285.563,272.719 286.052,272.083 286.580 C 270.339 288.031,269.477 288.350,266.558 288.630 C 264.487 288.829,263.323 289.195,261.887 290.097 C 260.026 291.267,259.769 291.312,252.267 291.771 C 246.222 292.141,244.350 292.389,243.591 292.921 C 242.265 293.850,172.866 293.977,170.687 293.055 C 167.483 291.699,167.813 301.001,167.694 208.858 C 167.575 116.792,167.386 122.112,170.800 121.491 C 173.476 121.004,245.901 121.232,249.007 121.738 M198.400 147.878 C 196.758 148.464,196.800 146.887,196.800 207.848 C 196.800 260.985,196.859 266.402,197.441 266.984 C 198.579 268.122,242.000 267.719,244.200 266.550 C 245.666 265.771,248.278 265.292,254.918 264.585 C 256.747 264.390,257.488 264.091,258.432 263.169 C 259.089 262.526,259.756 261.999,259.914 261.998 C 262.241 261.979,264.981 261.091,265.965 260.038 C 266.645 259.310,267.816 258.656,268.954 258.370 C 270.011 258.104,271.000 257.573,271.226 257.151 C 271.447 256.739,272.331 256.043,273.192 255.604 C 274.053 255.165,274.915 254.524,275.108 254.179 C 275.300 253.835,276.187 253.069,277.079 252.477 C 279.848 250.638,282.347 248.078,283.398 246.003 C 283.953 244.909,284.841 243.729,285.373 243.381 C 285.905 243.032,286.525 242.218,286.750 241.572 C 286.975 240.925,287.602 239.992,288.143 239.498 C 288.684 239.004,289.418 237.683,289.775 236.562 C 290.131 235.441,290.866 233.924,291.407 233.191 C 291.948 232.457,292.500 231.215,292.633 230.429 C 293.139 227.451,293.652 226.000,294.596 224.878 C 295.461 223.850,295.618 223.116,295.993 218.360 C 296.226 215.412,296.609 211.517,296.845 209.705 C 297.152 207.343,297.150 205.643,296.837 203.705 C 296.597 202.217,296.219 198.322,295.998 195.050 C 295.610 189.324,295.551 189.050,294.439 187.784 C 293.624 186.855,293.199 185.841,292.993 184.334 C 292.622 181.624,292.220 180.577,290.989 179.114 C 290.445 178.467,290.000 177.603,290.000 177.194 C 290.000 176.784,289.297 175.636,288.437 174.643 C 287.578 173.650,286.672 172.225,286.426 171.478 C 286.170 170.702,285.557 169.926,284.999 169.673 C 284.462 169.428,283.906 168.765,283.764 168.200 C 283.621 167.631,282.984 166.902,282.336 166.567 C 281.692 166.234,280.958 165.507,280.705 164.951 C 280.451 164.395,279.731 163.675,279.105 163.351 C 278.478 163.027,277.768 162.329,277.528 161.801 C 277.287 161.272,276.574 160.660,275.943 160.440 C 275.312 160.220,274.392 159.606,273.898 159.075 C 273.404 158.543,272.100 157.795,271.000 157.412 C 269.900 157.029,268.626 156.275,268.169 155.738 C 267.649 155.125,266.453 154.531,264.969 154.148 C 263.666 153.811,262.141 153.101,261.580 152.569 C 260.765 151.798,259.730 151.479,256.446 150.988 C 253.779 150.589,251.647 150.014,250.381 149.352 C 247.741 147.971,201.784 146.668,198.400 147.878 " stroke="none" fill="#a4cc3c" fill-rule="evenodd"></path></g></svg>